<?xml version="1.0" encoding="utf-8"?>
<!-- Generator: Adobe Illustrator 19.1.0, SVG Export Plug-In . SVG Version: 6.00 Build 0)  -->
<svg version="1.1" id="Layer_1" xmlns="http://www.w3.org/2000/svg" xmlns:xlink="http://www.w3.org/1999/xlink" x="0px" y="0px"
	 viewBox="0 0 80 79.4" style="enable-background:new 0 0 80 79.4;" xml:space="preserve">
<g>
	<g>
		<path d="M80,43.5c-1.8,5.1-3.4,10.3-5.5,15.2c-1.1,2.5-3.3,4.5-5,6.7c0.7-1.3,1.3-2.7,2-3.9c9.3-14.6,9.3-29.1,0.1-43.7
			c-0.8-1.2-1.4-2.6-2.1-3.9c3,5.7,6.2,11.4,9.1,17.1c0.7,1.4,0.9,3.1,1.4,4.6C80,38.2,80,40.8,80,43.5z"/>
		<path d="M65.8,68.4c-4.4,5.7-10.8,7.8-17.4,9.6c-1.6,0.4-3.1,0.9-4.7,1.4c-2.7,0-5.4,0-8,0c-4.8-1.6-9.7-3-14.3-5
			c-2.8-1.2-5.1-3.6-7.6-5.4c1.5,0.8,3,1.4,4.4,2.3c6.7,4.5,14.1,6.4,22.2,6.4C50.2,77.8,58.2,73.7,65.8,68.4z"/>
		<path d="M65.5,9.6c-4-2-7.9-4.5-12.1-5.9c-14-4.9-27-2.5-38.8,6.5c1.5-1.5,2.8-3.2,4.6-4.3C33.7-3.2,52.5-1.6,65.5,9.6z"/>
		<path d="M9.6,14c-0.3,0.9-0.5,2-1,2.8C-2.2,33-1.2,48.9,10.2,64.5C1.8,57.9,0.1,48.4,0,38.8C0,29.5,3,21,9.6,14z"/>
	</g>
</g>
<g>
	<g>
		<g>
			<path d="M24.2,23.7c-0.4,0.2-0.3,0.4-0.5,0.8c-0.2,0.4-0.2,0.4-0.4,0.8c-0.2,0.4-0.2,0.4-0.4,0.8s-0.3,0.4-0.4,0.9
				c0.2,0,0.5,0,0.9,0c0.4,0,0.8,0.1,1,0.1c0.5,0,0.8,0.1,0.9,0.2c0.2,0.2,0.4,0.4,0.4,0.9c0,0.3,0,0.6,0,1.1c0,0.3,0,0.6,0,0.9
				c0,0.3,0.1,0.6,0.1,0.9c0,0.3-0.1,0.6-0.1,0.9c0,0.3,0,0.6,0,0.9c0,0.3,0,0.6,0,0.9c0,0.3,0.1,0.6,0.1,0.9c0,0.4,0,0.8,0.1,1.5
				c0.4-0.3,0.6-0.5,0.8-0.7c0.2-0.2,0.5-0.4,0.8-0.6c0.3-0.2,0.6-0.3,0.9-0.5c0.3-0.2,0.6-0.3,0.9-0.4c0.3-0.1,0.6-0.2,0.9-0.3
				c0.3-0.1,0.6-0.3,0.9-0.3c0.3,0,0.7-0.1,1,0c0.3,0,0.7,0.1,1,0.2c0.3,0,0.7,0,1,0.1c0.3,0.1,0.6,0.2,0.9,0.3
				c0.3,0.1,0.6,0.3,0.9,0.5c0.3,0.2,0.5,0.4,0.8,0.6c0.3,0.2,0.5,0.4,0.8,0.6c0.2,0.2,0.6,0.4,0.8,0.6c0.2,0.2,0.4,0.6,0.5,0.8
				c0.2,0.3,0.3,0.6,0.5,0.9c0.1,0.3,0.3,0.6,0.4,0.9c0.1,0.3,0.2,0.6,0.3,0.9c0.1,0.3,0.1,0.6,0.2,0.9c0.1,0.3,0.2,0.6,0.2,0.9
				c0,0.3,0,0.6,0.1,1c0,0.3-0.1,0.6-0.1,1c0,0.3-0.1,0.6-0.1,0.9c0,0.3,0.1,0.6,0,1c-0.1,0.3-0.1,0.6-0.2,0.9
				c-0.1,0.3-0.1,0.6-0.2,0.9c-0.1,0.3-0.3,0.6-0.4,0.9c-0.1,0.3-0.3,0.6-0.4,0.9c-0.2,0.3-0.3,0.6-0.4,0.9
				c-0.2,0.3-0.4,0.5-0.6,0.7c-0.2,0.2-0.5,0.4-0.8,0.6c-0.2,0.2-0.5,0.4-0.8,0.6c-0.3,0.2-0.6,0.3-0.8,0.5
				c-0.3,0.1-0.6,0.4-0.9,0.5c-0.3,0.1-0.6,0.2-0.9,0.3c-0.3,0.1-0.6,0.1-1,0.1c-0.3,0-0.6,0-1,0c-0.3,0-0.6,0-1-0.1
				c-0.3-0.1-0.6-0.2-0.9-0.3c-0.3-0.1-0.6-0.2-0.9-0.3c-0.3-0.1-0.6-0.1-0.9-0.3c-0.3-0.2-0.5-0.4-0.8-0.6
				c-0.3-0.2-0.5-0.4-0.8-0.6c-0.2-0.2-0.4-0.4-0.6-0.6c-0.1,0.1-0.2,0.3-0.3,0.4c-0.1,0.2-0.2,0.6-0.3,0.8
				c-0.1,0.4-0.2,0.6-0.4,0.7c-0.3,0.1-0.5,0.2-0.8,0.2c-0.3,0-0.6,0-0.8,0c-0.3,0-0.6,0-0.8,0c-0.2,0-0.6-0.4-0.7-0.8
				c-0.1-0.3-0.1-0.7-0.1-1.1c0-0.3,0.1-0.6,0.1-1c0-0.3,0.1-0.6,0.1-1s0-0.6,0-1c0-0.3,0-0.6,0-1s-0.1-0.6-0.1-1s0-0.6,0-1
				s-0.1-0.6-0.1-1s0.2-0.6,0.2-1s-0.2-0.6-0.2-1s0.1-0.6,0.1-1c0-0.3-0.1-0.6-0.1-1c0-0.3,0.1-0.6,0.1-1c0-0.3-0.1-0.6-0.1-1
				c0-0.3,0-0.6,0-1c0-0.3,0.1-0.6,0.1-1s0-0.6,0-1c0-0.3-0.2-0.6-0.2-1c0-0.3,0.2-0.6,0.2-1c0-0.3-0.1-0.6-0.1-1c0-0.3,0-0.6,0-1
				s0.1-0.6,0.1-1c0-0.3-0.2-0.6-0.2-1c0-0.3,0-0.6,0-1c0,0,0-0.1,0-0.1c-0.2,0.4-0.2,0.4-0.4,0.9c-0.2,0.4-0.2,0.4-0.4,0.9
				c-0.2,0.4-0.2,0.5-0.4,0.9c-0.2,0.4-0.2,0.5-0.4,0.9c-0.2,0.4-0.2,0.5-0.4,0.9c-0.2,0.4-0.2,0.5-0.4,0.9
				c-0.2,0.4-0.3,0.4-0.5,0.8c-0.2,0.4-0.2,0.4-0.5,0.9c-0.2,0.4-0.3,0.4-0.5,0.8c-0.2,0.4-0.1,0.5-0.3,0.9
				c-0.2,0.4-0.3,0.4-0.5,0.8c-0.2,0.4-0.2,0.5-0.4,0.9c-0.2,0.4-0.3,0.4-0.5,0.8c-0.2,0.4-0.1,0.5-0.3,1c-0.2,0.4-0.2,0.4-0.4,0.9
				c-0.2,0.4-0.4,0.4-0.6,0.8c-0.2,0.4-0.2,0.5-0.4,0.9c-0.2,0.4-0.2,0.5-0.4,0.9c-0.2,0.4-0.3,0.4-0.5,0.9
				c-0.2,0.4-0.2,0.5-0.4,0.9c-0.2,0.4-0.3,0.4-0.5,0.8c-0.2,0.4-0.2,0.4-0.4,0.9c-0.2,0.4-0.1,0.5-0.3,0.9
				c-0.2,0.4-0.3,0.4-0.5,0.8c-0.2,0.4-0.1,0.5-0.3,0.9c-0.2,0.4-0.3,0.4-0.5,0.8c-0.2,0.4-0.2,0.4-0.4,0.9
				c-0.2,0.4-0.2,0.4-0.4,0.9c-0.2,0.4-0.2,0.4-0.4,0.9C9,54.4,9,54.3,8.8,54.8c-0.2,0.4-0.2,0.4-0.4,0.9c-0.2,0.4-0.6,0.5-0.4,0.9
				c0.2,0.4,0.5,0.1,1,0.1c0.5,0,0.5,0,1,0c0.5,0,0.5-0.1,1-0.1c0.5,0,0.5,0.1,1,0.1c0.5,0,0.5,0,1,0c0.5,0,0.5,0,1,0
				c0.5,0,0.5,0,1,0c0.5,0,0.5,0,1,0c0.5,0,0.5,0,1,0c0.5,0,0.5,0,1,0c0.5,0,0.5-0.1,1-0.1c0.5,0,0.5,0.2,1,0.2c0.5,0,0.5-0.1,1-0.1
				c0.5,0,0.5,0.1,1,0.1c0.5,0,0.5-0.1,1-0.1c0.5,0,0.5,0,1,0c0.5,0,0.5,0.1,1,0.1c0.5,0,0.5-0.1,1-0.1c0.5,0,0.5,0.1,1,0.1
				c0.5,0,0.5-0.1,1-0.1c0.5,0,0.5,0.1,1,0.1c0.5,0,0.5,0,1,0c0.5,0,0.5-0.1,1-0.1c0.5,0,0.5,0,1,0c0.5,0,0.5,0.1,1,0.1
				c0.5,0,0.5,0.1,1,0.1c0.5,0,0.5-0.2,1-0.2c0.5,0,0.5,0.1,1,0.1c0.5,0,0.5,0,1,0c0.5,0,0.5-0.1,1-0.1c0.5,0,0.5,0.1,1,0.1
				c0.5,0,0.5-0.1,1-0.1c0.5,0,0.5-0.1,1-0.1c0.5,0,0.5,0.1,1,0.1c0.5,0,0.5,0,1,0c0.5,0,0.5,0,1,0c0.5,0,0.5-0.1,1-0.1
				c0.5,0,0.5,0.1,1,0.1c0.5,0,0.5-0.1,1-0.1c0.5,0,0.5,0.1,1,0.1c0.5,0,0.5-0.1,1-0.1c0.5,0,0.5,0,1,0c0.5,0,0.5,0.1,1,0.1
				c0.5,0,0.5-0.1,1-0.1c0.5,0,0.5,0,1,0c0.5,0,0.5,0.1,1,0.1c0.5,0,0.5,0.1,1,0.1c0.5,0,0.5-0.1,1-0.1s0.5,0.3,1,0
				c0.4-0.3,0.2-0.4,0.4-0.8c0.2-0.4,0.2-0.5,0.4-0.9c0.2-0.4,0.3-0.4,0.5-0.8c0.2-0.4,0.1-0.5,0.4-0.9c0.2-0.4,0.1-0.5,0.3-0.9
				c0.2-0.4,0.3-0.4,0.5-0.8c0.2-0.4,0.3-0.4,0.5-0.8c0.2-0.4,0.2-0.5,0.4-0.9c0.2-0.4,0.2-0.4,0.4-0.9c0.2-0.4,0.2-0.4,0.4-0.9
				c0.2-0.4,0.2-0.5,0.4-0.9c0.2-0.4,0.2-0.5,0.4-0.9c0.2-0.4,0.2-0.4,0.4-0.9c0.2-0.4,0.3-0.4,0.5-0.8c0.2-0.4,0.2-0.4,0.4-0.9
				c0.2-0.4,0.1-0.5,0.4-0.9c0.2-0.4,0.2-0.4,0.4-0.9c0.2-0.4,0.2-0.4,0.5-0.8c0.2-0.4,0.2-0.5,0.4-0.9c0.2-0.4,0.3-0.4,0.5-0.8
				c0.2-0.4,0.1-0.5,0.3-0.9c0.2-0.4,0.3-0.4,0.5-0.8c0.2-0.4,0.2-0.4,0.4-0.9c0.2-0.4,0.2-0.5,0.4-0.9c0.2-0.4,0.3-0.4,0.5-0.8
				c0.2-0.4,0.2-0.5,0.4-0.9c0.2-0.4,0.2-0.4,0.5-0.8c0.2-0.4,0.3-0.4,0.5-0.8c0.2-0.4,0.2-0.4,0.4-0.9c0.2-0.4,0.1-0.5,0.3-0.9
				c0.2-0.4,0.4-0.4,0.6-0.8c0.2-0.4,0.1-0.5,0.3-0.9c0.2-0.4,0.2-0.4,0.4-0.9c0.2-0.4,0.2-0.4,0.4-0.9c0.2-0.4,0.3-0.4,0.5-0.8
				c0.2-0.4,0.2-0.4,0.4-0.9c0.2-0.4,0.1-0.5,0.3-0.9s0.8-0.5,0.5-0.9c-0.3-0.4-0.5,0-1,0c-0.5,0-0.5,0.1-1,0.1
				c-0.5,0-0.5-0.1-1-0.1c-0.5,0-0.5,0-1,0c-0.5,0-0.5,0.1-1,0.1c-0.5,0-0.5-0.2-1-0.2c-0.5,0-0.5,0.1-1,0.1c-0.5,0-0.5-0.1-1-0.1
				c-0.5,0-0.5,0.1-1,0.1c-0.5,0-0.5,0-1,0c-0.5,0-0.5-0.1-1-0.1c-0.5,0-0.5,0.1-1,0.1c-0.5,0-0.5-0.1-1-0.1c-0.5,0-0.5,0-1,0
				c-0.5,0-0.5,0-1,0c-0.5,0-0.5-0.1-1-0.1c-0.5,0-0.5,0-1,0c-0.5,0-0.5,0.2-1,0.2c-0.5,0-0.5-0.1-1-0.1c-0.5,0-0.5,0.1-1,0.1
				c-0.5,0-0.5-0.2-1-0.2c-0.5,0-0.5,0.1-1,0.1c-0.5,0-0.5-0.1-1-0.1c-0.5,0-0.5,0-1,0c-0.5,0-0.5,0.1-1,0.1c-0.5,0-0.5-0.1-1-0.1
				c-0.5,0-0.5,0-1,0c-0.5,0-0.5,0.1-1,0.1c-0.5,0-0.5-0.1-1-0.1c-0.5,0-0.5,0.1-1,0.1c-0.5,0-0.5,0-1,0c-0.5,0-0.5-0.1-1-0.1
				c-0.5,0-0.5-0.1-1-0.1c-0.5,0-0.5,0.1-1,0.1c-0.5,0-0.5-0.2-1-0.2c-0.5,0-0.5,0-1,0c-0.5,0-0.5,0.1-1,0.1c-0.5,0-0.5-0.1-1-0.1
				c-0.5,0-0.5-0.1-1-0.1c-0.5,0-0.5,0-1,0c-0.5,0-0.5,0-1,0c-0.5,0-0.5,0-1,0c-0.5,0-0.5,0.1-1,0.1c-0.5,0-0.5,0-1,0
				c-0.5,0-0.5,0-1,0c-0.5,0-0.5,0-1,0c-0.5,0-0.5,0-1,0c-0.5,0-0.5,0.1-1,0C24.6,23.6,24.6,23.5,24.2,23.7z M58.1,47.1
				c-0.1,0.3-0.2,0.6-0.4,0.9c-0.1,0.3-0.3,0.6-0.4,0.9c-0.2,0.3-0.3,0.6-0.5,0.9c-0.2,0.3-0.4,0.6-0.6,0.8
				c-0.2,0.2-0.5,0.5-0.7,0.7c-0.3,0.2-0.6,0.4-0.8,0.5c-0.3,0.2-0.6,0.4-0.9,0.5c-0.3,0.1-0.6,0.4-0.9,0.5c-0.3,0.1-0.7,0.1-1,0.2
				c-0.3,0.1-0.7,0.1-1,0.1c-0.3,0-0.7,0.1-1,0.1c-0.3,0-0.7-0.1-1-0.2c-0.3,0-0.7-0.1-1-0.1c-0.3-0.1-0.6-0.2-1-0.3
				c-0.3-0.1-0.7-0.1-1-0.3c-0.3-0.1-0.6-0.3-0.9-0.5c-0.3-0.2-0.6-0.3-0.9-0.5c-0.3-0.2-0.5-0.5-0.7-0.7c-0.2-0.2-0.4-0.5-0.6-0.8
				c-0.2-0.3-0.4-0.5-0.5-0.8c-0.2-0.3-0.3-0.6-0.4-0.9c-0.1-0.3-0.4-0.5-0.5-0.9c-0.1-0.3-0.2-0.6-0.3-1c-0.1-0.3,0-0.7-0.1-1
				c0-0.3-0.2-0.6-0.2-1c0-0.3,0-0.7,0-1c0-0.3,0.1-0.6,0.1-0.9c0-0.3,0.2-0.6,0.2-0.9c0-0.3,0.1-0.6,0.1-0.9c0.1-0.3,0-0.6,0.1-0.9
				c0.1-0.3,0.2-0.6,0.4-0.9c0.1-0.3,0.3-0.6,0.4-0.8c0.1-0.3,0.3-0.6,0.4-0.8c0.2-0.3,0.4-0.5,0.6-0.7c0.2-0.2,0.5-0.4,0.7-0.6
				c0.2-0.2,0.4-0.5,0.7-0.6c0.3-0.2,0.6-0.4,0.9-0.5c0.3-0.2,0.6-0.2,0.9-0.4c0.3-0.1,0.6-0.2,1-0.3c0.3-0.1,0.6-0.3,0.9-0.4
				c0.3-0.1,0.7-0.1,1-0.1c0.3,0,0.7-0.1,1,0c0.3,0,0.7,0.1,1,0.1c0.3,0,0.7,0.1,1,0.2c0.3,0.1,0.7,0.1,1,0.2
				c0.3,0.1,0.6,0.2,0.9,0.4c0.3,0.1,0.6,0.4,0.9,0.5c0.3,0.1,0.5,0.3,0.8,0.5c0.2,0.2,0.5,0.4,0.7,0.6c0.2,0.2,0.5,0.4,0.7,0.6
				c0.2,0.2,0.4,0.5,0.5,0.8c0.1,0.3,0.2,0.6,0.3,0.9c0.1,0.3,0.1,0.6,0.2,0.9c0.1,0.4,0.1,0.7,0,0.8c-0.1,0.2-0.4,0.2-0.8,0.2
				c-0.3,0-0.6,0-0.9,0c-0.3,0-0.6,0.1-0.9,0.1c-0.4,0-0.7-0.1-0.9-0.3c-0.2-0.2-0.4-0.4-0.6-0.7C54,39,54,38.6,53.8,38.4
				c-0.2-0.3-0.5-0.5-0.7-0.7c-0.3-0.2-0.5-0.4-0.8-0.5c-0.3-0.1-0.6-0.3-0.9-0.3c-0.3-0.1-0.7,0-1,0c-0.3,0-0.7-0.1-1,0
				c-0.3,0-0.7,0.2-1,0.3c-0.3,0.1-0.6,0.3-0.9,0.5c-0.3,0.2-0.5,0.4-0.8,0.7c-0.2,0.2-0.5,0.5-0.6,0.8c-0.2,0.3-0.4,0.6-0.5,0.9
				c-0.1,0.3-0.2,0.6-0.3,0.9c-0.1,0.3-0.2,0.6-0.2,1c-0.1,0.3,0,0.7-0.1,1c0,0.3-0.1,0.7-0.1,1c0,0.3,0.1,0.6,0.1,1
				c0,0.3,0,0.7,0,1c0.1,0.3,0.3,0.6,0.4,0.9c0.1,0.3,0.1,0.7,0.2,1c0.2,0.3,0.4,0.6,0.6,0.9c0.2,0.3,0.4,0.6,0.7,0.8
				c0.3,0.2,0.6,0.4,0.9,0.5c0.3,0.1,0.7,0.3,1,0.3c0.3,0.1,0.7,0.2,1.1,0.2c0.4,0,0.7,0,1-0.1c0.3-0.1,0.6-0.4,0.9-0.5
				c0.3-0.2,0.7-0.2,0.9-0.5c0.2-0.2,0.4-0.6,0.6-0.9c0.2-0.3,0.4-0.6,0.5-0.9c0.1-0.3,0.4-0.4,0.6-0.6c0.2-0.2,0.4-0.5,0.6-0.6
				c0.3-0.1,0.6-0.2,0.9-0.3c0.3-0.1,0.6,0,0.9,0.1c0.3,0,0.6,0.1,0.8,0.3C58,46.2,58.2,46.7,58.1,47.1z"/>
		</g>
		<g>
			<path d="M30.8,50.1c0.3,0,0.6-0.1,0.9-0.1c0.3,0,0.6-0.1,0.9-0.2c0.3-0.1,0.6-0.1,0.9-0.3c0.3-0.2,0.5-0.4,0.7-0.6
				c0.2-0.2,0.4-0.4,0.6-0.7c0.2-0.3,0.3-0.6,0.4-0.9c0.1-0.3,0.3-0.6,0.4-0.9c0.1-0.3,0.2-0.6,0.3-0.9c0.1-0.3,0.1-0.6,0.2-1
				c0-0.3,0-0.7,0-1c0-0.3,0-0.7,0-1c0-0.3,0-0.7-0.1-1c-0.1-0.3-0.2-0.6-0.3-0.9c-0.1-0.3-0.4-0.5-0.5-0.8
				c-0.1-0.3-0.3-0.6-0.4-0.9c-0.2-0.3-0.3-0.5-0.5-0.8c-0.2-0.2-0.5-0.4-0.8-0.5c-0.3-0.2-0.5-0.4-0.8-0.5
				c-0.3-0.1-0.6-0.2-0.9-0.3c-0.3-0.1-0.6-0.2-0.9-0.2c-0.3,0-0.6,0.1-0.9,0.1c-0.3,0-0.6,0.1-0.9,0.2c-0.3,0.1-0.5,0.3-0.8,0.5
				c-0.3,0.2-0.6,0.3-0.8,0.5c-0.2,0.2-0.5,0.4-0.7,0.7c-0.2,0.2-0.4,0.5-0.5,0.8c-0.1,0.3-0.3,0.6-0.4,0.9c-0.1,0.3,0,0.7-0.1,1
				c-0.1,0.3-0.1,0.6-0.2,0.9c-0.1,0.3-0.2,0.6-0.3,0.9c0.1,0.3,0.2,0.6,0.3,0.9c0.1,0.3,0.1,0.6,0.2,1c0.1,0.3,0.1,0.6,0.2,0.9
				c0.1,0.3,0.1,0.7,0.2,1c0.1,0.3,0.3,0.6,0.5,0.9c0.2,0.3,0.5,0.4,0.7,0.7c0.2,0.2,0.4,0.5,0.7,0.7c0.3,0.2,0.5,0.3,0.8,0.5
				c0.3,0.1,0.6,0.1,0.9,0.2C30.2,49.9,30.5,50,30.8,50.1z"/>
		</g>
	</g>
</g>
</svg>
