<?xml version="1.0" encoding="utf-8"?>
<!-- Generator: Adobe Illustrator 19.1.0, SVG Export Plug-In . SVG Version: 6.00 Build 0)  -->
<svg version="1.1" id="Layer_1" xmlns="http://www.w3.org/2000/svg" xmlns:xlink="http://www.w3.org/1999/xlink" x="0px" y="0px"
	 viewBox="0 0 80 79.4" style="enable-background:new 0 0 80 79.4;" xml:space="preserve">
<g>
	<path d="M80,43.6c-1.4,4.1-2.4,8.4-4.2,12.3c-1.6,3.3-4,6.3-6.1,9.4c0.6-1.2,1-2.4,1.7-3.5c9.6-14.4,9.6-29.9,0-44.3
		c-0.7-1.1-1.2-2.3-1.8-3.5c3,6,6.1,12,9.1,18.1c0.6,1.1,0.9,2.4,1.3,3.6C80,38.3,80,40.9,80,43.6z"/>
	<path d="M0.1,35.6c1.4-4.1,2.4-8.4,4.2-12.3c1.6-3.3,4-6.3,6.1-9.4c-0.8,1.4-1.5,2.9-2.3,4.3c-4.1,6.4-6.2,13.3-6.4,21
		C1.3,49.6,5.7,58,11.5,66.1C5.7,60.7,2.5,54,1.2,46.3C1,45,0.5,43.8,0.1,42.6C0.1,40.2,0.1,37.9,0.1,35.6z"/>
	<path d="M65.8,69c-5.3,4.9-11.6,7.8-18.7,9.1c-1.1,0.2-2.1,0.8-3.1,1.2c-2.7,0-5.3,0-8,0c-3.3-1-6.8-1.6-9.8-3.1
		c-4.5-2.4-8.5-5.4-12.7-8.2c1.5,1,3.1,2,4.6,3c10.7,7.2,22.4,8.7,34.5,4.6C57.2,74,61.4,71.2,65.8,69z"/>
	<path d="M43-0.1c4.5,1.4,9.1,2.4,13.4,4.2c3.4,1.5,6.3,4,9.4,6c-1.3-0.7-2.7-1.2-3.9-2c-6.5-4.4-13.6-6.5-21.5-6.7
		c-10.4-0.3-18.9,4-27,9.8c5.2-5.8,11.9-8.7,19.4-10.1C34,0.9,35,0.3,36-0.1C38.4-0.1,40.7-0.1,43-0.1z"/>
	<path d="M49.8,35.7c-0.1,1.4-0.2,2.8-0.3,4.6c-6.2-0.5-6.9,3-6.5,7.8c0.3,3.4,0.1,6.9,0.1,10.3c-4.5,1.6-6.4,0.5-6.1-3.9
		c0.1-2.3-0.1-4.6,0-6.9c0.2-4.1,0.2-8.1-6.3-6.8c-0.1-2-0.2-3.6-0.2-5.6c5.5,0.7,6.7-1.9,6.7-6.6c0-5.7,3.6-8.4,9.4-8.5
		c3.5,0,5,1.3,3.8,5.1c-3.4,0.8-8.3,0.9-7,6.3c0.4,1.9,1.3,3.6,4.7,4.5C48.7,36.2,49.3,35.9,49.8,35.7z"/>
</g>
</svg>
