<?xml version="1.0" encoding="utf-8"?>
<!-- Generator: Adobe Illustrator 19.1.0, SVG Export Plug-In . SVG Version: 6.00 Build 0)  -->
<svg version="1.1" id="Layer_1" xmlns="http://www.w3.org/2000/svg" xmlns:xlink="http://www.w3.org/1999/xlink" x="0px" y="0px"
	 viewBox="0 0 80 79.4" style="enable-background:new 0 0 80 79.4;" xml:space="preserve">
<g>
	<path d="M69.7,14.5c3,5.8,6,11.5,8.9,17.4c0.6,1.3,0.9,2.7,1.4,4.1c0,2.7,0,5.3,0,8c-1.6,4.6-2.9,9.4-5,13.9
		c-1.3,2.8-3.5,5.1-5.3,7.7c0.6-1.2,1.1-2.4,1.9-3.5c9.3-14.2,9.3-30,0.1-44.1C70.9,16.9,70.3,15.7,69.7,14.5z"/>
	<path d="M0,36c1.6-4.6,2.9-9.4,5-13.9c1.3-2.8,3.5-5.1,5.3-7.7c-0.6,1.2-1.1,2.4-1.9,3.5c-4.7,6.8-6.8,14.2-6.9,22.4
		C1.5,50,5.4,58,10.7,65.6c-5.6-4.7-7.8-11.1-9.4-17.9C0.9,46.1,0.4,44.6,0,43C0,40.7,0,38.3,0,36z"/>
	<path d="M43,0c5,1.6,10.1,2.9,14.9,5c2.8,1.2,5.1,3.5,7.7,5.3C60.4,7.8,55.4,4.5,50,3c-13-3.7-24.9-0.3-35.5,7.7
		C19.1,5.1,25.6,3,32.3,1.3C33.9,0.9,35.4,0.4,37,0C39,0,41,0,43,0z"/>
	<path d="M14.9,69.4c17.5,12.2,32.6,12.2,50.1,0c-7.2,8.3-17,10.4-27,9.9C29.4,79,20.8,76.9,14.9,69.4z"/>
	<path d="M40,20.4c4.5,0,9,0,13.5,0c4.1,0,6.2,2,6.2,6.1c0,9.1,0,18.3,0,27.4c0,3.8-2.1,5.8-5.9,5.8c-9.1,0-18.3,0-27.4,0
		c-3.8,0-5.9-2-5.9-5.8c0-9.3-0.1-18.6,0-27.9c0-3.6,2.1-5.5,5.7-5.5C30.7,20.3,35.4,20.4,40,20.4z M40,56.1c3.8,0,7.6,0,11.5,0
		c2.7,0,4.5-1,4.6-4c0-4.1,0.2-8.3-0.1-12.4c-0.1-1-1.6-1.9-2.5-2.9c-0.6,1-1.5,2-1.6,3c-1,7.5-5.1,11.8-11.5,11.9
		c-6.7,0.1-11-4.2-12-11.9c-0.1-1.1-1.1-2-1.6-3c-0.9,1-2.4,1.9-2.5,2.9c-0.3,4.1-0.2,8.3-0.1,12.4c0,3,1.9,4,4.6,4
		C32.4,56.1,36.2,56.1,40,56.1z M40.2,48.2c4.3-0.1,8.2-4.2,8-8.5c-0.2-4.1-4-7.8-8.1-7.9c-4.3,0-8.3,3.9-8.3,8.2
		C31.8,44.4,35.8,48.3,40.2,48.2z M51.6,32.9c3.2,0.1,4.5-1.5,4.5-4.6c0-3.1-1.6-4.4-4.6-4.4c-3.2,0-4.4,1.6-4.4,4.6
		C47.1,31.7,48.6,33.1,51.6,32.9z"/>
</g>
</svg>
