<?xml version="1.0" encoding="utf-8"?>
<!-- Generator: Adobe Illustrator 19.1.0, SVG Export Plug-In . SVG Version: 6.00 Build 0)  -->
<svg version="1.1" id="Layer_1" xmlns="http://www.w3.org/2000/svg" xmlns:xlink="http://www.w3.org/1999/xlink" x="0px" y="0px"
	 viewBox="0 0 80 79.4" style="enable-background:new 0 0 80 79.4;" xml:space="preserve">
<g>
	<g>
		<g>
			<path d="M0,43.5c1.8,5.1,3.4,10.3,5.5,15.2c1.1,2.5,3.3,4.5,5,6.7c-0.7-1.3-1.3-2.7-2-3.9c-9.3-14.6-9.3-29.1-0.1-43.7
				c0.8-1.2,1.4-2.6,2.1-3.9c-3,5.7-6.2,11.4-9.1,17.1C0.7,32.3,0.5,34,0,35.5C0,38.2,0,40.8,0,43.5z"/>
			<path d="M14.2,68.4c4.4,5.7,10.8,7.8,17.4,9.6c1.6,0.4,3.1,0.9,4.7,1.4c2.7,0,5.4,0,8,0c4.8-1.6,9.7-3,14.3-5
				c2.8-1.2,5.1-3.6,7.6-5.4c-1.5,0.8-3,1.4-4.4,2.3c-6.7,4.5-14.1,6.4-22.2,6.4C29.8,77.8,21.8,73.7,14.2,68.4z"/>
			<path d="M14.5,9.6c4-2,7.9-4.5,12.1-5.9c14-4.9,27-2.5,38.8,6.5c-1.5-1.5-2.8-3.2-4.6-4.3C46.3-3.2,27.5-1.6,14.5,9.6z"/>
			<path d="M70.4,14c0.3,0.9,0.5,2,1,2.8c10.8,16.3,9.8,32.2-1.6,47.7c8.4-6.6,10.1-16.1,10.2-25.7C80,29.5,77,21,70.4,14z"/>
		</g>
	</g>
	<path d="M57.2,40c0,0-1.9,0.5-12.3-21.6c-1.1-2.3-3.8-5.1-5.1-6.1c-1.3-1-3.2-0.9-4.8-0.6c-1.5,0.2-2.2,0.8-3.6,3l0,0.8
		c0.2-0.1,0.4-0.3,0.6-0.4c0.3-0.1,0.8-0.2,1.6-0.2c0.8,0,4.6-0.5,7.3,3.1c2.7,3.6,9.8,17.2,9.8,22.1c0,0,0,0.1,0,0.1
		c0,0,0,0.1,0,0.1c0,4.9-7.1,18.4-9.8,22.1c-2.7,3.6-6.5,3.1-7.3,3.1c-0.8,0-1.3,0-1.6-0.2c-0.3-0.1-0.5-0.3-0.6-0.4l0,0.8
		c1.4,2.1,2,2.8,3.6,3c1.5,0.2,3.5,0.4,4.8-0.6c1.3-1,4-3.8,5.1-6.1c10.4-22,12.3-21.6,12.3-21.6C57.2,40.2,57.2,40.1,57.2,40
		C57.2,40.1,57.2,40,57.2,40z"/>
</g>
</svg>
