<?xml version="1.0" encoding="utf-8"?>
<!-- Generator: Adobe Illustrator 19.1.0, SVG Export Plug-In . SVG Version: 6.00 Build 0)  -->
<svg version="1.1" id="Layer_1" xmlns="http://www.w3.org/2000/svg" xmlns:xlink="http://www.w3.org/1999/xlink" x="0px" y="0px"
	 viewBox="0 0 80 79.4" style="enable-background:new 0 0 80 79.4;" xml:space="preserve">
<g>
	<g>
		<g>
			<path d="M80,35.9c-1.8-5.1-3.4-10.3-5.5-15.2c-1.1-2.5-3.3-4.5-5-6.7c0.7,1.3,1.3,2.7,2,3.9c9.3,14.6,9.3,29.1,0.1,43.7
				c-0.8,1.2-1.4,2.6-2.1,3.9c3-5.7,6.2-11.4,9.1-17.1c0.7-1.4,0.9-3.1,1.4-4.6C80,41.2,80,38.5,80,35.9z"/>
			<path d="M65.8,10.9c-4.4-5.7-10.8-7.8-17.4-9.6c-1.6-0.4-3.1-0.9-4.7-1.4c-2.7,0-5.4,0-8,0C31,1.6,26,2.9,21.4,5
				c-2.8,1.2-5.1,3.6-7.6,5.4c1.5-0.8,3-1.4,4.4-2.3C25,3.5,32.4,1.7,40.5,1.6C50.2,1.6,58.2,5.7,65.8,10.9z"/>
			<path d="M65.5,69.8c-4,2-7.9,4.5-12.1,5.9c-14,4.9-27,2.5-38.8-6.5c1.5,1.5,2.8,3.2,4.6,4.3C33.7,82.6,52.5,81,65.5,69.8z"/>
			<path d="M9.6,65.4c-0.3-0.9-0.5-2-1-2.8c-10.8-16.3-9.8-32.2,1.6-47.7C1.8,21.5,0.1,31,0,40.6C0,49.9,3,58.4,9.6,65.4z"/>
		</g>
	</g>
	<path d="M22.8,39.3c0,0,1.9-0.5,12.3,21.6c1.1,2.3,3.8,5.1,5.1,6.1c1.3,1,3.2,0.9,4.8,0.6c1.5-0.2,2.2-0.8,3.6-3l0-0.8
		c-0.2,0.1-0.4,0.3-0.6,0.4c-0.3,0.1-0.8,0.2-1.6,0.2c-0.8,0-4.6,0.5-7.3-3.1c-2.7-3.6-9.8-17.2-9.8-22.1c0,0,0-0.1,0-0.1
		c0,0,0-0.1,0-0.1c0-4.9,7.1-18.4,9.8-22.1c2.7-3.6,6.5-3.1,7.3-3.1c0.8,0,1.3,0,1.6,0.2c0.3,0.1,0.5,0.3,0.6,0.4l0-0.8
		c-1.4-2.1-2-2.8-3.6-3c-1.5-0.2-3.5-0.4-4.8,0.6c-1.3,1-4,3.8-5.1,6.1c-10.4,22-12.3,21.6-12.3,21.6C22.8,39.2,22.8,39.2,22.8,39.3
		C22.8,39.3,22.8,39.3,22.8,39.3z"/>
</g>
</svg>
