<?xml version="1.0" encoding="utf-8"?>
<!-- Generator: Adobe Illustrator 19.1.0, SVG Export Plug-In . SVG Version: 6.00 Build 0)  -->
<svg version="1.1" id="Layer_1" xmlns="http://www.w3.org/2000/svg" xmlns:xlink="http://www.w3.org/1999/xlink" x="0px" y="0px"
	 viewBox="0 0 80 79.4" style="enable-background:new 0 0 80 79.4;" xml:space="preserve">
<g>
	<path d="M80,43.5c-1.8,5.1-3.4,10.3-5.5,15.2c-1.1,2.5-3.3,4.5-5,6.7c0.7-1.3,1.3-2.7,2-3.9c9.3-14.6,9.3-29.1,0.1-43.7
		c-0.8-1.2-1.4-2.6-2.1-3.9c3,5.7,6.2,11.4,9.1,17.1c0.7,1.4,0.9,3.1,1.4,4.6C80,38.2,80,40.9,80,43.5z"/>
	<path d="M65.8,68.4c-4.4,5.7-10.8,7.8-17.4,9.6c-1.6,0.4-3.1,0.9-4.7,1.4c-2.7,0-5.4,0-8,0c-4.8-1.6-9.7-3-14.3-5
		c-2.8-1.2-5.1-3.6-7.6-5.4c1.5,0.8,3,1.4,4.4,2.3c6.7,4.5,14.1,6.4,22.2,6.4C50.2,77.8,58.2,73.7,65.8,68.4z"/>
	<path d="M65.5,9.6c-4-2-7.9-4.5-12.1-5.9c-14-4.9-27-2.5-38.8,6.4c1.5-1.5,2.8-3.2,4.6-4.3C33.7-3.2,52.5-1.6,65.5,9.6z"/>
	<path d="M9.6,14c-0.3,0.9-0.5,2-1,2.8C-2.2,33.1-1.2,49,10.2,64.5C1.8,57.9,0.1,48.4,0,38.8C0,29.6,3,21,9.6,14z"/>
	<path d="M43.1,30.6c1.4-2.1,2-4.1,3.3-4.6c2.9-1.2,6.3-2.7,9.1-2.1c3.9,0.7,3.8,4.9,3,7.9C55.7,41.6,49.8,49.5,41,55
		c-3.7,2.3-6.5,0.2-7.9-3.4c-1.6-4.3-2.7-8.9-4.1-13.3c-1.1-3.6-1.8-7.7-8-4.9c0-0.7-0.1-1.3-0.1-2c3.3-2.5,6.3-5.5,9.9-7.3
		c3-1.5,5,0.8,5.7,3.8c1,4.2,1.7,8.5,2.7,12.6c0.3,1.3,1.6,2.3,2.4,3.5c1.2-0.8,2.5-1.5,3.4-2.5c1.1-1.2,1.8-2.8,2.5-4.3
		C49,33.7,48.7,31,43.1,30.6z"/>
</g>
</svg>
